PathFileType	4	(x/y/z)	S09_P20_T03
DataRate	CameraRate	NumFrames	NumMarkers	Units	OrigDataRate	OrigDataStartFrame	OrigNumFrames
240	240	5	51	mm	240	154	409
Frame#	Time	Sternum			R.Acromium			L.Acromium			Top.Head			R.ASIS			L.ASIS			R.PSIS			L.PSIS			R.Great.Tro			L.Great.Tro			R.Iliac.Crest			L.Iliac.Crest			V.Sacral			R.Thigh.Upper.Post			R.Thigh.Lower.Ant			R.Thigh.Lower.Post			R.Thigh.Upper.Ant			R.Knee.Lat			R.Knee.Med			R.Shank.Upper.Post			R.Shank.Lower.Ant			R.Shank.Lower.Post			R.Shank.Upper.Ant			R.Ankle.Lat			R.Ankle.Med			R.Heel.Upper			R.Heel.Med			R.Heel.Lat			R.Toe.Lat			R.Toe.Med			R.Toe.Tip			L.Thigh.Upper.Post			L.Thigh.Lower.Ant			L.Thigh.Lower.Post			L.Thigh.Upper.Ant			L.Knee.Lat			L.Knee.Med			L.Shank.Upper.Post			L.Shank.Lower.Ant			L.Shank.Lower.Post			L.Shank.Upper.Ant			L.Ankle.Lat			L.Ankle.Med			L.Heel.Upper			L.Heel.Med			L.Heel.Lat			L.Toe.Lat			L.Toe.Med			L.Toe.Tip			Cervical.Spine			Back			
		X1	Y1	Z1	X2	Y2	Z2	X3	Y3	Z3	X4	Y4	Z4	X5	Y5	Z5	X6	Y6	Z6	X7	Y7	Z7	X8	Y8	Z8	X9	Y9	Z9	X10	Y10	Z10	X11	Y11	Z11	X12	Y12	Z12	X13	Y13	Z13	X14	Y14	Z14	X15	Y15	Z15	X16	Y16	Z16	X17	Y17	Z17	X18	Y18	Z18	X19	Y19	Z19	X20	Y20	Z20	X21	Y21	Z21	X22	Y22	Z22	X23	Y23	Z23	X24	Y24	Z24	X25	Y25	Z25	X26	Y26	Z26	X27	Y27	Z27	X28	Y28	Z28	X29	Y29	Z29	X30	Y30	Z30	X31	Y31	Z31	X32	Y32	Z32	X33	Y33	Z33	X34	Y34	Z34	X35	Y35	Z35	X36	Y36	Z36	X37	Y37	Z37	X38	Y38	Z38	X39	Y39	Z39	X40	Y40	Z40	X41	Y41	Z41	X42	Y42	Z42	X43	Y43	Z43	X44	Y44	Z44	X45	Y45	Z45	X46	Y46	Z46	X47	Y47	Z47	X48	Y48	Z48	X49	Y49	Z49	X50	Y50	Z50	X51	Y51	Z51	

154	0.6375	-497.21	1155.9	323.33	-627.82	1424.9	474.39	-631.06	1419	162.8	-620.07	1728.7	310.37	-552.79	1009.7	417.85	-581.53	1002.9	174.88	-781.03	1027.4	370.3	-783.47	1029.5	280.46	-618.32	926.27	499.63	-666.02	911.83	116.63	-636.19	1085.9	473.49	-683.82	1100.5	154.13	-799.86	991.79	323.96	-558	683.81	473.17	-467.14	606.87	420.28	-542.76	595.08	442.54	-488.41	689.72	452.94	-468.84	529.11	412.65	-486.24	519.74	293.19	-514	344.67	425.37	-440.03	294.43	406.82	-506.54	269.04	414.36	-452.98	366.46	419.82	-454.34	89.358	391.52	-428.06	110.1	309.25	-514.24	72.074	340.35	-500.35	42.197	311.45	-508.59	41.213	375.94	-346.63	44.051	425.66	-303.13	58.399	322.22	-259.6	83.079	366.66	-739.84	661.38	181.89	-666.58	557.89	167.6	-727.96	571.55	197.39	-675.19	645.45	148.26	-699.24	486.31	179.39	-650.57	485.42	305.53	-814.39	415.86	179.37	-822.85	305.96	186.88	-863.23	356.99	190.28	-773.96	366.06	177.33	-980.08	194.03	220.22	-959.15	179.03	309.05	-1051.3	212.69	281.59	-1053.7	190.84	317.81	-1074.7	191.58	259	-968.32	66.907	193.53	-923.26	52.455	298.01	-885.29	39.579	236.35	-710.13	1473.6	328.42	-765.32	1209.1	314.3
155	0.64167	-491.64	1156.8	323.48	-622.04	1425.6	474.68	-625.92	1419.6	163.19	-614.64	1729.2	310.48	-547.28	1010.5	418.38	-576.04	1003.2	175.41	-775.49	1027.8	370.51	-777.92	1029.5	280.65	-612.97	927.27	500.23	-659.57	911.79	117.1	-630.64	1086.8	473.88	-678.43	1100.6	154.47	-794.24	992	324.28	-553.08	684.44	473.89	-462.5	607.23	420.9	-538.13	595.66	443.26	-483.49	690.14	453.58	-464.61	529.27	413.14	-481.78	520.03	293.8	-511.15	345	425.91	-437.62	294.18	407.15	-504.34	269.31	414.78	-449.95	366.29	420.24	-453.91	89.274	391.64	-427.47	109.95	309.34	-513.92	72.243	340.43	-500.19	42.36	311.5	-508.42	41.348	376	-346.37	43.625	425.82	-302.84	57.553	322.16	-259.03	81.856	366.59	-730.86	660.32	181.46	-656.61	557.64	166.39	-717.73	570.49	196.63	-666.23	645.16	147.39	-688.47	486.23	177.8	-638.99	484.7	303.97	-803.77	417.49	178.19	-813.79	307.7	185.52	-853.43	359.31	189.11	-764.09	367.07	175.92	-972.42	197.9	219.07	-951.53	182.58	307.78	-1042.1	219.5	280.79	-1045.2	198.14	317.28	-1066.4	199.07	258.48	-965.27	69.751	193.37	-920.17	54.285	297.68	-883.42	39.418	235.97	-704.77	1474.1	328.91	-759.76	1209.6	314.91
156	0.64583	-486.05	1157.8	323.62	-616.27	1426.2	474.95	-620.8	1420.2	163.56	-609.21	1729.7	310.6	-541.82	1011.4	418.96	-570.55	1003.5	175.97	-769.99	1028.4	370.67	-772.41	1029.5	280.81	-607.7	928.27	500.84	-653.13	911.76	117.57	-625.18	1087.7	474.25	-673.03	1100.6	154.79	-788.67	992.22	324.56	-548.3	685.02	474.61	-458.02	607.52	421.55	-533.68	596.2	443.96	-478.71	690.49	454.27	-460.55	529.39	413.66	-477.41	520.31	294.42	-508.45	345.3	426.4	-435.34	293.92	407.49	-502.27	269.58	415.15	-447.08	366.12	420.67	-453.53	89.204	391.73	-426.93	109.82	309.42	-513.65	72.387	340.5	-500.05	42.502	311.55	-508.28	41.465	376.06	-346.15	43.28	425.98	-302.59	56.803	322.1	-258.53	80.754	366.52	-721.87	659.32	181	-646.63	557.46	165.11	-707.49	569.49	195.82	-657.27	644.94	146.48	-677.65	486.22	176.14	-627.32	484.06	302.34	-793	419.13	176.95	-804.55	309.47	184.14	-843.46	361.64	187.92	-754.06	368.13	174.47	-964.45	201.77	217.9	-943.61	186.15	306.52	-1032.5	226.25	279.96	-1036.2	205.36	316.71	-1057.7	206.51	257.93	-961.79	72.758	193.2	-916.68	56.278	297.31	-881.16	39.313	235.54	-699.42	1474.6	329.39	-754.22	1210.2	315.5
157	0.65	-480.44	1158.7	323.75	-610.53	1427	475.21	-615.68	1420.8	163.93	-603.78	1730.2	310.72	-536.4	1012.3	419.58	-565.06	1003.8	176.56	-764.54	1028.9	370.8	-766.93	1029.5	280.93	-602.5	929.26	501.45	-646.71	911.74	118.03	-619.81	1088.6	474.61	-667.64	1100.7	155.1	-783.14	992.47	324.8	-543.69	685.57	475.31	-453.7	607.74	422.23	-529.41	596.71	444.64	-474.08	690.77	455	-456.66	529.46	414.21	-473.17	520.57	295.03	-505.91	345.58	426.84	-433.19	293.66	407.83	-500.32	269.82	415.47	-444.36	365.93	421.11	-453.2	89.146	391.82	-426.45	109.71	309.48	-513.41	72.508	340.55	-499.92	42.626	311.58	-508.16	41.568	376.1	-345.97	43.004	426.14	-302.39	56.137	322.03	-258.08	79.76	366.45	-712.88	658.38	180.51	-636.65	557.37	163.79	-697.25	568.57	194.95	-648.32	644.79	145.53	-666.77	486.3	174.43	-615.58	483.52	300.66	-782.1	420.78	175.66	-795.13	311.27	182.76	-833.32	363.97	186.72	-743.89	369.22	173	-956.19	205.61	216.75	-935.41	189.72	305.3	-1022.5	232.89	279.11	-1026.9	212.45	316.1	-1048.6	213.83	257.32	-957.86	75.907	193	-912.75	58.426	296.91	-878.45	39.28	235.07	-694.09	1475.2	329.86	-748.7	1210.8	316.07
158	0.65417	-474.84	1159.7	323.87	-604.8	1427.7	475.45	-610.57	1421.4	164.28	-598.34	1730.8	310.84	-531.03	1013.3	420.24	-559.57	1004.1	177.19	-759.12	1029.4	370.89	-761.49	1029.5	281.01	-597.37	930.24	502.06	-640.33	911.75	118.48	-614.52	1089.5	474.97	-662.23	1100.7	155.38	-777.66	992.73	325.01	-539.23	686.06	476.01	-449.55	607.88	422.93	-525.32	597.17	445.28	-469.59	690.97	455.77	-452.95	529.48	414.77	-469.07	520.81	295.63	-503.51	345.83	427.22	-431.17	293.39	408.17	-498.5	270.05	415.74	-441.78	365.73	421.53	-452.91	89.099	391.88	-426.01	109.61	309.52	-513.21	72.608	340.59	-499.8	42.732	311.6	-508.05	41.657	376.13	-345.83	42.788	426.28	-302.22	55.544	321.97	-257.69	78.863	366.38	-703.9	657.51	179.98	-626.67	557.37	162.43	-687.03	567.74	194.03	-639.38	644.71	144.56	-655.86	486.47	172.67	-603.79	483.09	298.94	-771.1	422.45	174.34	-785.55	313.09	181.38	-823.05	366.3	185.5	-733.59	370.36	171.51	-947.64	209.42	215.61	-926.94	193.26	304.12	-1012.3	239.37	278.23	-1017.3	219.36	315.46	-1039.2	220.97	256.68	-953.43	79.173	192.77	-908.32	60.711	296.46	-875.22	39.339	234.55	-688.77	1475.7	330.32	-743.21	1211.4	316.62
